<svg width="40" height="40" viewBox="0 0 40 40" fill="none" xmlns="http://www.w3.org/2000/svg">
<path d="M31.6667 23.3333V9.99996C31.6667 8.16663 30.1667 6.66663 28.3333 6.66663H5C3.16667 6.66663 1.66667 8.16663 1.66667 9.99996V23.3333C1.66667 25.1666 3.16667 26.6666 5 26.6666H28.3333C30.1667 26.6666 31.6667 25.1666 31.6667 23.3333ZM16.6667 21.6666C13.9 21.6666 11.6667 19.4333 11.6667 16.6666C11.6667 13.9 13.9 11.6666 16.6667 11.6666C19.4333 11.6666 21.6667 13.9 21.6667 16.6666C21.6667 19.4333 19.4333 21.6666 16.6667 21.6666ZM38.3333 11.6666V30C38.3333 31.8333 36.8333 33.3333 35 33.3333H6.66667V30H35V11.6666H38.3333Z" fill="#A1C5E9"/>
</svg>
